<svg width="91" height="91" viewBox="0 0 91 91" fill="none" xmlns="http://www.w3.org/2000/svg">
<path d="M89.2814 41.4414L49.5507 1.71285C48.4489 0.615863 46.9576 0 45.4029 0C43.8483 0 42.3569 0.615863 41.2551 1.71285L33.0232 9.95531L43.4849 20.4234C44.7192 20.0062 46.0457 19.9434 47.3139 20.242C48.5821 20.5406 49.7413 21.1886 50.66 22.1127C51.5786 23.0367 52.22 24.1997 52.5114 25.4698C52.8027 26.7399 52.7324 28.0663 52.3084 29.2984L62.3832 39.3887C63.8748 38.8653 65.5002 38.8651 66.9919 39.3881C68.4837 39.9112 69.753 40.9265 70.5913 42.267C71.4295 43.6074 71.7867 45.1933 71.6041 46.7638C71.4216 48.3342 70.7101 49.7958 69.5867 50.9082C66.861 53.639 62.4606 53.639 59.7303 50.9082C58.7605 49.9371 58.0979 48.702 57.8252 47.3569C57.5525 46.0117 57.6817 44.616 58.1967 43.3438L48.7589 33.9545V58.7C49.4233 59.0232 50.0604 59.4692 50.611 60.0199C51.9121 61.3304 52.6422 63.1022 52.6422 64.949C52.6422 66.7958 51.9121 68.5676 50.611 69.8781C49.9618 70.5285 49.1908 71.0444 48.342 71.3964C47.4933 71.7485 46.5834 71.9297 45.6646 71.9297C44.7457 71.9297 43.8359 71.7485 42.9871 71.3964C42.1384 71.0444 41.3673 70.5285 40.7182 69.8781C40.0704 69.2321 39.5564 68.4645 39.2058 67.6195C38.8551 66.7744 38.6746 65.8685 38.6746 64.9536C38.6746 64.0386 38.8551 63.1327 39.2058 62.2876C39.5564 61.4426 40.0704 60.6751 40.7182 60.029C41.4098 59.3463 42.1834 58.8275 43.0116 58.4861V33.4993C42.1608 33.1509 41.3874 32.6373 40.7362 31.9882C40.0851 31.3391 39.569 30.5673 39.2177 29.7175C38.8665 28.8677 38.6872 27.9567 38.6901 27.0372C38.693 26.1177 38.8781 25.2078 39.2347 24.3603L28.9505 14.0242L1.70645 41.2502C-0.568816 43.5441 -0.568816 47.258 1.70645 49.5519L41.4371 89.2804C41.9807 89.8255 42.6265 90.258 43.3375 90.553C44.0485 90.8481 44.8106 91 45.5804 91C46.3502 91 47.1123 90.8481 47.8233 90.553C48.5343 90.258 49.1801 89.8255 49.7237 89.2804L89.2678 49.7339C89.8154 49.1917 90.2504 48.5464 90.5477 47.8353C90.845 47.1242 90.9987 46.3613 91 45.5905C91.0013 44.8197 90.8501 44.0563 90.5551 43.3442C90.2602 42.6322 89.8273 41.9855 89.2814 41.4414Z" fill="#2D2C2C"/>
</svg>
