<svg width="91" height="91" viewBox="0 0 91 91" fill="none" xmlns="http://www.w3.org/2000/svg">
<path d="M0 0H91V91H0V0ZM83.5431 69.2965C82.8808 65.1459 80.1761 61.6576 72.1579 58.4018C69.3673 57.0924 66.2682 56.1874 65.338 54.0843C64.9942 52.8306 64.9437 52.1531 65.1661 51.4099C65.7374 48.9631 68.6393 48.23 70.9143 48.9074C72.3956 49.3624 73.7606 50.5 74.615 52.325C78.533 49.7618 78.533 49.7618 81.2681 48.0581C80.2418 46.4707 79.7312 45.7781 79.0487 45.0956C76.6574 42.4262 73.4724 41.0612 68.3006 41.1775L65.6312 41.5162C63.0681 42.1431 60.6212 43.5132 59.1449 45.3281C54.8224 50.2219 56.0712 58.7506 61.3037 62.2844C66.4755 66.1519 74.0487 67.0013 75.0143 70.6413C75.9243 75.08 71.7181 76.5007 67.5574 75.9901C64.4887 75.3025 62.7799 73.7707 60.9043 70.9244L53.9681 74.9082C54.7618 76.7231 55.6718 77.5219 57.0368 79.1144C63.6343 85.7675 80.1306 85.4288 83.0881 75.3025C83.1942 74.9638 83.9981 72.6332 83.3712 69.0488L83.5431 69.2965ZM49.4838 41.8246H40.9601C40.9601 49.1703 40.9247 56.4756 40.9247 63.8365C40.9247 68.5078 41.1623 72.795 40.3989 74.1144C39.1502 76.7282 35.9197 76.3945 34.4587 75.9294C32.9572 75.1913 32.1938 74.165 31.3091 72.6888C31.0714 72.2944 30.8945 71.9507 30.8288 71.9507L23.9128 76.2176C25.0705 78.6088 26.7591 80.6614 28.938 81.9657C32.1786 83.902 36.5314 84.5289 41.0916 83.5077C44.0642 82.6482 46.6274 80.8838 47.957 78.1538C49.8983 74.6301 49.4838 70.3026 49.4686 65.4694C49.5091 57.6788 49.4686 49.8832 49.4686 42.0369L49.4838 41.8246Z" fill="#2D2C2C"/>
</svg>
