<svg width="91" height="91" viewBox="0 0 91 91" fill="none" xmlns="http://www.w3.org/2000/svg">
<path d="M33.8527 69.7572C33.8527 69.7572 30.4637 71.7293 36.2678 72.3948C43.3004 73.1981 46.8942 73.083 54.642 71.6184C54.642 71.6184 56.6831 72.8946 59.5282 74.0008C42.1536 81.4443 20.2077 73.5692 33.8527 69.7572ZM31.7285 60.0422C31.7285 60.0422 27.9264 62.8568 33.7354 63.4583C41.2479 64.2339 47.1793 64.2972 57.448 62.3208C57.448 62.3208 58.8649 63.7604 61.0966 64.5467C40.0941 70.6892 16.7014 65.0302 31.7285 60.0422Z" fill="#2D2C2C"/>
<path d="M49.6247 43.5598C53.9081 48.4902 48.5015 52.9229 48.5015 52.9229C48.5015 52.9229 59.371 47.3129 54.3802 40.2845C49.7172 33.7332 46.1426 30.4793 65.4957 19.255C65.4957 19.2557 35.1166 26.8407 49.6247 43.5598Z" fill="#2D2C2C"/>
<path d="M72.6032 76.944C72.6032 76.944 75.112 79.0129 69.839 80.6118C59.8134 83.6489 28.1027 84.5646 19.2956 80.7333C16.1313 79.3555 22.0676 77.4452 23.9352 77.0421C25.8825 76.6206 26.9944 76.6973 26.9944 76.6973C23.4731 74.2183 4.23514 81.5673 17.224 83.6752C52.6436 89.4167 81.7892 81.0895 72.6032 76.944ZM35.4844 49.9746C35.4844 49.9746 19.3561 53.8059 29.7734 55.1986C34.1727 55.7872 42.9386 55.6522 51.1094 54.9668C57.7851 54.4059 64.4842 53.208 64.4842 53.208C64.4842 53.208 62.1325 54.2168 60.4291 55.3784C44.0476 59.6874 12.4095 57.6805 21.5187 53.2755C29.2196 49.5509 35.4844 49.9746 35.4844 49.9746ZM64.4174 66.1463C81.0683 57.4963 73.3688 49.1833 67.9949 50.3031C66.681 50.5768 66.0917 50.8149 66.0917 50.8149C66.0917 50.8149 66.5808 50.0478 67.5135 49.718C78.1442 45.982 86.3186 60.7396 64.0847 66.585C64.0847 66.5835 64.3399 66.3525 64.4174 66.1463Z" fill="#2D2C2C"/>
<path d="M54.3804 1.12823C54.3804 1.12823 63.5998 10.3534 45.6337 24.5344C31.2258 35.9137 42.3485 42.4003 45.6287 49.8147C37.2176 42.2268 31.0481 35.5461 35.1865 29.329C41.2636 20.2048 58.0993 15.7792 54.3804 1.12823Z" fill="#2D2C2C"/>
<path d="M37.1209 89.5931C53.0999 90.6147 77.6443 89.0243 78.2251 81.4628C78.2251 81.4628 77.1083 84.3293 65.0181 86.6036C51.378 89.1715 34.5515 88.8722 24.575 87.2249C24.575 87.2256 26.6189 88.9177 37.1209 89.5931Z" fill="#2D2C2C"/>
</svg>
