<svg width="91" height="91" viewBox="0 0 91 91" fill="none" xmlns="http://www.w3.org/2000/svg">
<g clip-path="url(#clip0_0_11)">
<path d="M91.4891 88.7705L89.563 86.9353C88.6113 85.6803 87.5989 84.5693 86.4955 83.5569L86.4766 83.5418C85.3441 82.513 84.1674 81.5347 82.9465 80.607C81.9683 79.9346 80.6235 79.1245 78.9122 78.1766C77.5055 77.5434 76.4059 76.4324 75.8106 75.0522L75.7954 75.0143L75.6134 74.9233C76.4173 74.8437 77.1529 74.6958 77.8581 74.4873L77.7709 74.51L79.9321 73.9147C80.827 73.6342 81.8621 73.4522 82.9351 73.4104H82.9579C84.0878 73.3649 85.1533 73.1829 86.1694 72.8834L86.0746 72.9062C86.565 72.7848 87.0693 72.6471 87.5875 72.4929C88.1057 72.3387 88.5493 72.2009 88.9184 72.0796V71.4388C88.5519 70.8903 88.1082 70.2634 87.5875 69.5581C87.0908 68.8832 86.5334 68.2955 85.9078 67.7836L85.8889 67.7684C84.2989 66.363 82.652 65.0031 80.9483 63.6886C79.4468 62.517 77.7444 61.3226 75.9774 60.2154L75.7196 60.0638C74.7868 59.4495 73.7176 58.8808 72.5915 58.4144L72.4626 58.3689C71.3301 57.9088 70.2141 57.4046 69.1145 56.856C68.7467 56.674 68.3183 56.5148 67.8746 56.4048L67.8329 56.3972C67.3893 56.3062 67.0101 56.0787 66.7334 55.7564L66.7296 55.7527C66.2063 55.0626 65.7475 54.2777 65.3835 53.4435L65.3532 53.3677C64.9867 52.5108 64.5898 51.688 64.1626 50.8993C63.245 49.1248 62.3578 47.3212 61.5009 45.4886C60.6439 43.656 59.8211 41.8208 59.0325 39.9831C58.484 38.7597 57.9797 37.5375 57.5196 36.3166C57.0115 34.9743 56.439 33.8254 55.7716 32.7448L55.8209 32.832C54.1829 30.0414 52.5487 27.6602 50.7742 25.3966L50.8804 25.5407C49.1249 23.3263 47.3049 21.3471 45.3484 19.5119L45.318 19.4854C43.3881 17.6729 41.3102 15.9439 39.13 14.3439L38.9442 14.2112C36.6793 12.5656 34.2021 10.9453 31.5126 9.35024C30.4319 8.71324 29.1769 8.19378 27.8536 7.86012L27.755 7.83737L23.5349 6.78328L21.1499 6.60128C20.3562 6.54062 19.5612 6.51028 18.765 6.51028C18.2038 6.21453 17.7223 5.86191 17.2976 5.45241C16.8805 5.05428 16.4293 4.67891 15.9592 4.33387L15.9212 4.30733C13.6273 2.96887 10.9617 1.74416 8.17486 0.781076L7.85257 0.682492C7.12078 0.254034 6.24111 0.00378418 5.30457 0.00378418C4.63724 0.00378418 3.99645 0.132701 3.41253 0.363992L3.44665 0.352617C2.00582 0.925159 0.906238 2.0892 0.43228 3.53762L0.420905 3.57553C0.144113 4.2277 -0.0151367 4.98224 -0.0151367 5.77849C-0.0151367 7.17383 0.47778 8.45162 1.30057 9.44883L1.29299 9.43745C2.6681 11.2701 3.72218 12.7109 4.45524 13.7599C5.00377 14.4955 5.56999 15.2602 6.1539 16.0539C6.68853 16.7667 7.16249 17.5819 7.54545 18.4427L7.57578 18.5223C7.78811 18.9735 7.9739 19.5119 8.1104 20.0655L8.12178 20.1262C8.24311 20.6469 8.39604 21.2131 8.58057 21.8248C9.1291 23.2303 9.64856 24.6711 10.1389 26.1473C10.6736 27.7588 11.2651 29.1238 11.9514 30.4243L11.8793 30.2727C12.2458 30.945 12.6136 31.6023 12.9827 32.2443C13.3518 32.8864 13.7486 33.5133 14.1733 34.125C14.4197 34.4966 14.7307 34.8037 15.0871 35.0426L15.0984 35.0502C15.4738 35.3232 15.7203 35.7516 15.7392 36.2369C15.307 36.8739 15.015 37.6399 14.9164 38.4627L14.9127 38.4854C14.7799 39.4447 14.5904 40.2978 14.3325 41.1206L14.3629 41.0069C13.5173 43.5321 13.032 46.4441 13.032 49.4661C13.032 50.4443 13.0813 51.4074 13.1837 52.3591L13.1723 52.2416C13.3998 55.874 14.4956 59.2107 16.2511 62.0999L16.198 62.0051C16.945 63.1237 17.745 64.0981 18.6285 64.9892C19.2655 65.702 20.1907 66.1494 21.222 66.1494C21.7983 66.1494 22.3443 66.0091 22.8221 65.7589L22.8031 65.7664C24.1302 65.2887 25.0743 64.0754 25.1426 62.6307V62.6232C25.3246 60.8259 25.5976 59.2182 25.9729 57.6485L25.9237 57.9025C26.0147 57.6637 26.0677 57.3907 26.0677 57.1025C26.0677 57.0456 26.0639 56.9887 26.0602 56.9319V56.9394C26.0298 56.6639 26.1979 56.4036 26.5644 56.1584V56.3404C26.931 57.1973 27.3127 58.0529 27.7095 58.9073C28.1064 59.7617 28.5184 60.6174 28.9456 61.4743C30.0642 63.1767 31.2509 64.6631 32.5553 66.0319L32.5439 66.0205C33.852 67.431 35.2777 68.6974 36.8171 69.8159L36.9005 69.8728C37.7044 70.4871 38.4096 71.1506 39.0466 71.8748L39.0618 71.89C39.6609 72.5952 40.3775 73.1754 41.1851 73.6114L41.223 73.6304V73.5394H41.405C41.2571 73.2095 41.0183 72.9441 40.7225 72.7621L40.7149 72.7583C40.4154 72.5914 40.1576 72.4246 39.9149 72.2426L39.9339 72.254C39.3853 71.7055 38.8191 71.0937 38.2352 70.4188C37.6513 69.7439 37.1166 69.1018 36.6313 68.4927C35.3472 66.7182 34.1225 64.864 32.9572 62.9303C31.7919 60.9965 30.691 59.0312 29.6547 57.0342C29.1643 56.056 28.6903 55.0474 28.2328 54.0085C27.7752 52.9696 27.3316 51.961 26.9019 50.9827C26.7161 50.6074 26.5872 50.1751 26.5379 49.7163V49.6974C26.5152 49.2613 26.2649 48.8859 25.9009 48.6926L25.8933 48.6888C25.4345 49.4699 24.9264 50.1448 24.3463 50.7552L24.3501 50.7514C23.7472 51.3847 23.2543 52.1316 22.9017 52.9506L22.8827 52.9999C22.3481 54.2966 21.9576 55.8019 21.7869 57.3755L21.7794 57.4475C21.5974 59.0678 21.4141 60.7336 21.2296 62.4449L21.0476 62.5359L20.9566 62.6269C19.9707 62.426 19.1593 61.7966 18.7195 60.9472L18.7119 60.9283C18.2518 60.041 17.8398 59.1689 17.4758 58.312C16.5355 55.8967 15.9516 53.1023 15.8719 50.1827V50.1486C15.8378 49.686 15.8227 49.1438 15.8227 48.6016C15.8227 46.0763 16.2208 43.6421 16.9564 41.3595L16.9109 41.5263C17.0929 40.8539 17.4897 39.7215 18.1014 38.129C18.7132 36.5365 18.8358 35.4356 18.4692 34.8264C18.2797 34.2008 17.927 33.6738 17.4644 33.2719L17.4607 33.2681C16.9981 32.8662 16.5772 32.4453 16.1904 31.9979L16.1791 31.9827C15.7519 31.3659 15.3398 30.7087 14.943 30.011C14.5461 29.3134 14.1948 28.6258 13.8889 27.9484C13.2633 26.4999 12.6225 24.6837 12.0917 22.8182L12.0082 22.4808C11.4054 20.3385 10.7342 18.5261 9.93799 16.7819L10.0366 17.0246C9.6157 16.0691 9.12657 15.2425 8.55782 14.488L8.58057 14.5183C7.96379 13.6942 7.41274 12.9144 6.9274 12.1788C6.31063 11.3851 5.6989 10.6205 5.09224 9.88487C4.4742 9.13791 3.9244 8.29616 3.47699 7.39374L3.44286 7.31791C3.26086 6.95012 3.10161 6.52166 2.99165 6.07803L2.98407 6.03632C2.94236 5.90362 2.91961 5.74816 2.91961 5.5927C2.91961 5.28178 3.01061 4.98983 3.16986 4.74716L3.16607 4.75474C3.20778 4.54241 3.30636 4.35662 3.44286 4.20495C3.59074 4.07224 3.78032 3.97366 3.98507 3.93195H3.99265C4.31495 3.72341 4.70549 3.59828 5.13015 3.59828C5.44865 3.59828 5.75578 3.67033 6.02499 3.79924L6.01361 3.79545C6.84399 4.03053 7.51511 4.26562 8.17107 4.53483L8.03457 4.48553C9.19482 4.97592 10.2653 5.44988 11.2461 5.90741C12.376 6.44583 13.3391 7.01458 14.2491 7.64778L14.1809 7.60228C14.6713 7.90814 15.1604 8.24434 15.6482 8.61087C16.1361 8.97739 16.6556 9.34519 17.2066 9.71424H18.492C19.4702 9.71424 20.5092 9.76101 21.6087 9.85453C22.7197 9.94174 23.7472 10.1503 24.7255 10.4764L24.6345 10.4498C26.4583 10.992 28.0242 11.6328 29.5106 12.4025L29.3551 12.3305C30.8541 13.0939 32.276 13.904 33.6207 14.7609C35.854 16.1525 37.784 17.5782 39.6002 19.1365L39.5357 19.0834C41.4316 20.7063 43.153 22.3708 44.7682 24.1302L44.8062 24.1757C46.3835 25.8971 47.8888 27.7664 49.2651 29.7267L49.3827 29.9049C50.6491 31.6945 51.9269 33.7648 53.0758 35.9109L53.235 36.2332C53.5421 36.8171 53.8531 37.5337 54.1223 38.2655L54.164 38.3906C54.4092 39.0933 54.6834 39.8138 54.9868 40.5519C55.6592 42.0812 56.3796 43.6244 57.148 45.1815C57.9165 46.7386 58.6369 48.2527 59.3093 49.7239L61.3264 54.126C62.0355 55.6654 62.8279 56.9925 63.7493 58.2172L63.7076 58.1604C64.4773 58.9832 65.5049 59.5595 66.6575 59.7604L66.6879 59.7642C68.0832 60.1131 69.2586 60.5074 70.3961 60.9738L70.2179 60.9093C70.7601 61.1558 71.4578 61.4174 72.1744 61.6487L72.3261 61.6904C73.1299 61.9369 73.8276 62.2629 74.4684 62.6724L74.4342 62.6535C75.6741 63.3474 76.7244 64.0299 77.7254 64.773L77.6458 64.7162C78.6847 65.4795 79.7236 66.2 80.7625 66.8774C81.2529 67.2439 82.0757 67.7786 83.2309 68.4813C84.3861 69.184 84.9978 69.8412 85.0661 70.4529C84.6338 70.4378 84.1219 70.4264 83.6101 70.4264C81.7446 70.4264 79.9094 70.5477 78.1121 70.7828L78.3245 70.7601C76.2921 71.0331 74.4494 71.5298 72.7166 72.2388L72.8683 72.1857C72.4398 72.3715 71.9279 72.5422 71.3971 72.6749L71.3251 72.69C70.7867 72.7697 70.3696 73.2019 70.3165 73.7403C70.5478 74.0285 70.7336 74.3659 70.8587 74.7299L70.8663 74.7527C70.9952 75.1394 71.1507 75.4731 71.3402 75.784L71.3289 75.7613C71.7801 76.5613 72.2654 77.2514 72.8114 77.8884L72.7962 77.8694C73.3308 78.5292 73.9337 79.1017 74.6011 79.5909L74.6276 79.6098C75.2444 80.1002 75.8864 80.6045 76.5538 81.1227C77.1642 81.6004 77.8543 82.0706 78.5709 82.4953L78.6619 82.5446C79.7388 83.2043 80.99 83.8337 82.2944 84.3608L82.4688 84.4214C83.8869 84.9902 85.104 85.6499 86.2339 86.4348L86.1732 86.3931C86.9088 86.8203 87.6419 87.2943 88.3724 87.815C89.1029 88.3357 89.8056 88.84 90.4806 89.3279C90.7574 89.6009 91 89.9042 91.2048 90.2341L91.2161 90.253C91.5612 90.6474 92.0389 90.9166 92.5811 90.9848H92.5925V90.8028C92.2589 90.5488 92.0124 90.1962 91.8949 89.7904L91.8911 89.7753C91.7963 89.3885 91.656 89.0511 91.4664 88.7402L91.474 88.7553L91.4891 88.7705ZM21.0552 15.9515C20.5648 15.9515 20.106 15.9667 19.6788 15.997C19.2427 16.0274 18.837 16.107 18.4541 16.2359L18.4882 16.2245V16.3155H18.6702C18.9154 16.6821 19.2238 17.0941 19.5954 17.5516C19.9669 18.0091 20.3031 18.4528 20.6039 18.8825L22.0713 21.9082L22.2533 21.8172C22.6818 21.5063 23.0117 21.0892 23.2088 20.6001L23.2164 20.5812C23.4136 20.0541 23.5273 19.4399 23.5273 18.8029C23.5273 18.7346 23.5273 18.6664 23.5235 18.5981V18.6095C23.3529 18.4427 23.2126 18.2455 23.114 18.0256L23.1102 18.0142L22.8031 17.3241C22.6022 17.0056 22.3216 16.7554 21.9917 16.5961L21.9803 16.5923C21.6239 16.4217 21.3206 16.2056 21.0552 15.9515Z" fill="#2D2C2C"/>
</g>
<defs>
<clipPath id="clip0_0_11">
<rect width="91" height="91" fill="white"/>
</clipPath>
</defs>
</svg>
