<svg width="91" height="91" viewBox="0 0 91 91" fill="none" xmlns="http://www.w3.org/2000/svg">
<path d="M80.1731 21.5656L48.8229 3.36205C46.8458 2.23592 44.2715 2.23592 42.2787 3.36205L10.5937 21.5656C8.55329 22.7394 7.10938 24.9454 7.10938 27.305V63.6638C7.10938 66.0234 8.59097 68.2301 10.6314 69.4103L19.0026 74.165C23.0038 76.1357 24.4179 76.1357 26.2386 76.1357C32.1628 76.1357 35.5469 72.5533 35.5469 66.3049V30.4097C35.5469 29.9028 35.2831 29.1485 34.7855 29.1485H30.7879C30.2817 29.1485 29.1484 29.9028 29.1484 30.409V66.3042C29.1484 69.074 26.6431 71.8303 21.9609 69.4892L13.3109 64.5034C13.0094 64.3399 12.7969 64.0107 12.7969 63.6638V27.305C12.7969 26.9623 13.1914 26.6182 13.495 26.4426L45.0777 8.27036C45.3727 8.10329 45.8064 8.10329 46.1007 8.27036L77.2981 26.4384C77.5967 26.6182 77.4915 26.9517 77.4915 27.305V63.6638C77.4915 64.0107 77.6216 64.3484 77.3265 64.5155L45.9841 82.6984C45.7154 82.8598 45.382 82.8598 45.0877 82.6984L37.0491 77.9003C36.8067 77.7595 36.5187 77.709 36.2863 77.8391C34.0496 79.1068 33.6373 79.2752 31.5393 80.0025C31.0232 80.1824 30.2618 80.4945 31.8308 81.3739L42.3513 87.5975C43.3557 88.1776 44.4951 88.4831 45.655 88.4833C46.8223 88.4833 47.9655 88.1804 48.9729 87.5975L80.1724 69.4103C82.2128 68.2216 83.1797 66.0234 83.1797 63.6638V27.305C83.1797 24.9454 82.2128 22.745 80.1731 21.5656ZM55.3891 57.9023C47.0527 57.9023 45.2163 55.6024 44.6042 51.457C44.5331 51.0105 44.1542 50.4766 43.6999 50.4766H39.6255C39.1215 50.4766 38.7162 51.088 38.7162 51.5899C38.7162 56.8978 41.6019 63.3289 55.3899 63.3289C65.3707 63.3289 71.093 59.4508 71.093 52.5874C71.093 45.7823 66.4954 43.9964 56.816 42.7153C47.0321 41.4221 46.0382 40.7687 46.0382 38.4767C46.0382 36.587 46.8799 34.0667 54.1244 34.0667C60.5975 34.0667 62.9834 35.4559 63.9652 39.8189C64.0491 40.2291 64.4237 40.5235 64.8467 40.5235H68.9375C69.1892 40.5235 69.4294 40.4218 69.6058 40.2419C69.7764 40.0486 69.8667 39.8061 69.8439 39.5459C69.2105 32.0327 64.219 28.5314 54.1237 28.5314C45.1438 28.5314 39.7869 32.3235 39.7869 38.68C39.7869 45.5747 45.1168 47.48 53.7369 48.3324C64.0491 49.3434 64.851 50.8505 64.851 52.8788C64.851 56.4015 62.0229 57.9023 55.3891 57.9023Z" fill="#2D2C2C"/>
</svg>
