<svg width="93" height="91" viewBox="0 0 93 91" fill="none" xmlns="http://www.w3.org/2000/svg">
<path d="M33.9609 44.5439H55.6993C55.6993 44.5439 67.9145 44.7398 67.9145 32.7405V12.8957C67.9145 12.8957 69.7679 0.886353 45.7693 0.886353C22.7954 0.886353 24.2268 10.8464 24.2268 10.8464L24.257 21.1681H46.1711V24.2671H15.5526C15.5526 24.2671 0.851074 22.5996 0.851074 45.7745C0.851074 68.9493 13.6841 68.1256 13.6841 68.1256H21.3388V57.3719C21.3388 57.3719 20.9219 44.5439 33.9609 44.5439ZM33.6796 15.7134C32.6339 15.7134 31.631 15.298 30.8916 14.5586C30.1522 13.8192 29.7368 12.8163 29.7368 11.7706C29.7368 10.7249 30.1522 9.72202 30.8916 8.98259C31.631 8.24317 32.6339 7.82776 33.6796 7.82776C34.7253 7.82776 35.7282 8.24317 36.4676 8.98259C37.2071 9.72202 37.6225 10.7249 37.6225 11.7706C37.6225 12.8163 37.2071 13.8192 36.4676 14.5586C35.7282 15.298 34.7253 15.7134 33.6796 15.7134Z" fill="#2D2C2C"/>
<path d="M78.4975 23.6494H70.8428V34.403C70.8428 34.403 71.2597 47.2311 58.2207 47.2311H36.4823C36.4823 47.2311 24.2671 47.0302 24.2671 59.0345V78.8793C24.2671 78.8793 22.4137 90.8886 46.4123 90.8886C69.3812 90.8886 67.9497 80.9286 67.9497 80.9286L67.9196 70.6119H46.0054V67.5129H76.629C76.629 67.5129 91.3305 69.1804 91.3305 46.0055C91.3305 22.8307 78.4975 23.6494 78.4975 23.6494ZM58.502 76.0666C59.5477 76.0666 60.5506 76.482 61.29 77.2214C62.0294 77.9608 62.4448 78.9637 62.4448 80.0094C62.4448 81.0551 62.0294 82.058 61.29 82.7974C60.5506 83.5368 59.5477 83.9522 58.502 83.9522C57.4563 83.9522 56.4534 83.5368 55.714 82.7974C54.9745 82.058 54.5591 81.0551 54.5591 80.0094C54.5591 78.9637 54.9745 77.9608 55.714 77.2214C56.4534 76.482 57.4563 76.0666 58.502 76.0666Z" fill="#2D2C2C"/>
</svg>
