<svg width="94" height="91" viewBox="0 0 94 91" fill="none" xmlns="http://www.w3.org/2000/svg">
<path d="M47.0999 53.7648C51.5496 53.7648 55.1569 49.8383 55.1569 44.9948C55.1569 40.1513 51.5496 36.2249 47.0999 36.2249C42.6501 36.2249 39.0428 40.1513 39.0428 44.9948C39.0428 49.8383 42.6501 53.7648 47.0999 53.7648Z" fill="#2D2C2C"/>
<path d="M24.5403 62.4315L22.7574 61.9353C9.5141 58.2947 1.91748 52.1041 1.91748 44.9751C1.91748 37.8413 9.51861 31.6556 22.7574 28.015L24.5403 27.5237L25.0414 29.4447C26.3799 34.4743 28.0948 39.376 30.169 44.1006L30.5526 44.9751L30.169 45.8497C28.0926 50.581 26.3729 55.4844 25.0414 60.5154L24.5403 62.4315ZM21.9359 32.4859C11.8748 35.5714 5.69548 40.2782 5.69548 44.9751C5.69548 49.6623 11.8703 54.374 21.9359 57.4545C23.1682 53.1899 24.6577 49.0187 26.3819 44.9751C24.6452 40.9249 23.1599 36.7525 21.9359 32.4859ZM69.6551 62.4315L69.1586 60.5056C67.8166 55.475 66.1002 50.5719 64.0265 45.8448L63.6428 44.9751L64.0265 44.0957C66.1028 39.3742 67.8135 34.4659 69.1586 29.4349L69.6551 27.5187L71.438 28.0101C84.6859 31.6507 92.278 37.8363 92.278 44.9751C92.278 52.109 84.6813 58.2947 71.438 61.9353L69.6551 62.4315ZM67.8045 44.9751C69.61 49.2299 71.1131 53.4159 72.2595 57.4545C82.3252 54.374 88.5045 49.6623 88.5045 44.9751C88.5045 40.2782 82.3297 35.5763 72.2595 32.4859C71.0285 36.7511 69.5403 40.9233 67.8045 44.9751Z" fill="#2D2C2C"/>
<path d="M21.9087 32.4663L21.4122 30.5501C17.6839 16.2627 18.8123 6.02863 24.5131 2.46169C30.0876 -1.05121 39.0564 3.1004 48.4495 13.59L49.7314 15.0246L48.4495 16.4543C45.1133 20.231 42.064 24.296 39.3317 28.6094L38.8217 29.4054L37.937 29.484C33.1325 29.8947 28.3668 30.7311 23.6871 31.9848L21.9087 32.4663ZM29.0494 5.30149C28.0384 5.30149 27.1446 5.54223 26.3908 6.01389C22.6535 8.35746 21.9945 16.5182 24.5673 27.5335C28.589 26.5656 32.6469 25.8728 36.7363 25.4847C39.1039 21.8296 41.6866 18.3454 44.4684 15.0541C38.587 8.82913 33.0351 5.30149 29.0494 5.30149ZM65.1458 88.7463C59.7835 88.7463 52.8955 84.3442 45.7457 76.3554L44.4684 74.9257L45.7457 73.5009C49.0825 69.7181 52.1332 65.6483 54.868 61.331L55.3735 60.5449L56.2492 60.4515C61.0554 60.0481 65.8229 59.215 70.5036 57.9606L72.2865 57.4693L72.7875 59.3903C76.4978 73.6679 75.3739 83.9167 69.6821 87.4837C68.3001 88.3363 66.7342 88.7722 65.1458 88.7463ZM49.7314 74.8913C55.6083 81.1162 61.1647 84.6488 65.1458 84.6488C66.1614 84.6488 67.0551 84.4031 67.8044 83.9364C71.5463 81.5879 72.2098 73.4124 69.6279 62.3971C65.6107 63.3699 61.5483 64.0676 57.4499 64.4558C55.0924 68.1166 52.5139 71.6028 49.7314 74.8913Z" fill="#2D2C2C"/>
<path d="M72.2864 32.4663L70.5035 31.9799C65.8231 30.7222 61.0556 29.8858 56.2491 29.4791L55.3735 29.3955L54.8679 28.5996C52.1369 24.2838 49.086 20.2186 45.7457 16.4445L44.4683 15.0148L45.7457 13.5899C55.1343 3.1053 64.0985 -1.04631 69.682 2.46167C75.3784 6.03353 76.5113 16.2676 72.7875 30.5501L72.2864 32.4663ZM57.4498 25.4847C61.7559 25.9023 65.8363 26.6049 69.6279 27.5335C72.2052 16.5182 71.5462 8.35745 67.8043 6.00896C64.085 3.66539 57.0842 7.25199 49.7313 15.0541C52.5118 18.3459 55.0936 21.8244 57.4498 25.4847ZM29.0494 88.7463C27.4611 88.771 25.8955 88.3352 24.5131 87.4837C18.8122 83.9167 17.6838 73.6728 21.4076 59.3903L21.8951 57.4693L23.678 57.9606C28.0293 59.1545 32.8229 59.9946 37.9324 60.4515L38.8081 60.5449L39.3181 61.331C42.0444 65.6447 45.0957 69.7177 48.4359 73.5008L49.7178 74.9257L48.4359 76.3554C41.2906 84.3491 34.4027 88.7463 29.0494 88.7463ZM24.5672 62.4021C21.9944 73.4173 22.6534 81.5928 26.3908 83.9413C30.1146 86.2505 37.0929 82.6884 44.4683 74.8913C41.6876 71.5989 39.1049 68.1148 36.7363 64.4607C32.6427 64.0666 28.5776 63.3789 24.5672 62.4021Z" fill="#2D2C2C"/>
<path d="M47.0999 64.9815C43.9989 64.9815 40.8168 64.839 37.621 64.5491L36.7363 64.4656L36.2263 63.6697C34.4242 60.849 32.7286 57.9495 31.1438 54.9783C29.5707 51.9991 28.1086 48.9522 26.761 45.8448L26.3818 44.9752L26.761 44.0957C28.1106 40.9906 29.5685 37.9445 31.1438 34.9671C32.7101 32.0389 34.4208 29.1106 36.2263 26.2708L36.7363 25.4847L37.621 25.3963C43.9262 24.8214 50.2645 24.8214 56.5697 25.3963L57.4454 25.4896L57.9554 26.2757C61.5655 31.9197 64.7361 37.8821 67.4343 44.1006L67.8089 44.9801L67.4343 45.8497C64.7436 52.0725 61.5726 58.0355 57.9554 63.6746L57.4454 64.4705L56.5697 64.554C53.383 64.8341 50.1963 64.9815 47.0999 64.9815ZM38.8217 60.54C44.3962 60.9969 49.8036 60.9969 55.3736 60.54C58.483 55.5837 61.2471 50.3808 63.6427 44.9752C61.2556 39.5646 58.4911 34.3611 55.3736 29.4103C49.8644 28.9485 44.3308 28.9485 38.8217 29.4103C35.7015 34.3593 32.9369 39.563 30.5525 44.9752C32.9533 50.3779 35.7172 55.5803 38.8217 60.54Z" fill="#2D2C2C"/>
</svg>
