<svg width="91" height="91" viewBox="0 0 91 91" fill="none" xmlns="http://www.w3.org/2000/svg">
<path d="M82.7572 4.73932C81.4832 7.79559 79.8523 10.6905 77.8985 13.3637C69.3379 4.80818 57.7306 0.00147005 45.6276 0C20.5976 0 4.22892e-08 20.6145 4.22892e-08 45.672C-0.000266121 51.8596 1.25587 57.9829 3.69228 63.6707C6.1287 69.3585 9.69465 74.4924 14.174 78.7612L15.8568 80.2536C24.0812 87.1877 34.4907 90.9937 45.2481 91C69.0458 91 89.0508 72.3526 90.745 48.5863C91.9893 36.9523 88.5768 22.2376 82.7572 4.73932ZM20.6566 79.0213C20.2903 79.4727 19.8278 79.8367 19.303 80.0867C18.7782 80.3368 18.2042 80.4666 17.6228 80.4668C15.4781 80.4668 13.7235 78.7015 13.7235 76.5568C13.7235 74.4128 15.4894 72.6475 17.6228 72.6475C18.5111 72.6475 19.3888 72.9552 20.076 73.5244C21.7468 74.8747 22.0076 77.3506 20.6566 79.0213ZM82.5682 65.3498C71.3093 80.3602 47.2628 75.3011 31.8445 76.0238C31.8445 76.0238 29.107 76.1901 26.3575 76.6399C26.3575 76.6399 27.3879 76.2014 28.7275 75.6919C39.548 71.9248 44.6675 71.19 51.2446 67.8137C63.6292 61.5109 75.8717 47.7208 78.4201 33.3735C73.7035 47.1757 59.4101 59.035 46.3859 63.8568C37.4622 67.1506 21.3438 70.3493 21.3438 70.3493L20.6921 70.0053C9.71821 64.6626 9.38562 40.885 29.3316 33.2079C38.0662 29.843 46.4214 31.6914 55.8554 29.44C65.9289 27.0473 77.5787 19.4881 82.3187 9.63142C87.628 25.4007 94.0168 50.0901 82.5682 65.3498Z" fill="#2D2C2C"/>
</svg>
